<svg width="25" height="25" viewBox="0 0 25 25" fill="none" xmlns="http://www.w3.org/2000/svg">
<g clip-path="url(#clip0_4_99)">
<path d="M17.1299 5.66566C16.7217 5.32572 16.2734 5.61259 15.8586 5.80344C15.8536 5.79412 15.8482 5.78492 15.8432 5.77546C15.8393 5.76798 15.8228 5.73238 15.8098 5.70454C15.8396 5.6231 15.8319 5.5301 15.7562 5.46587C15.6928 5.41176 15.624 5.36802 15.5574 5.31823C15.3455 5.15969 15.0544 5.33413 14.9843 5.55138C14.9178 5.7576 14.9832 5.97669 15.0689 6.1795C14.9285 6.24872 14.7887 6.31939 14.6491 6.39005C14.4894 6.40752 14.3252 6.49356 14.1678 6.66076C13.747 7.10788 14.2745 7.74874 14.8047 7.48617C15.0584 7.36073 15.3139 7.23949 15.5684 7.11642C15.6188 7.19431 15.6667 7.27417 15.7201 7.34943C15.916 7.62593 16.1487 7.97256 16.5307 7.95732C16.9757 7.93959 17.1788 7.46016 16.8897 7.12929C16.8792 7.11734 16.8646 7.11313 16.8528 7.10328C16.8397 7.08778 16.83 7.06953 16.8161 7.05481C16.5722 6.79658 16.8623 7.10683 16.7125 6.96799C16.6256 6.88747 16.5458 6.79737 16.4733 6.7091C16.8085 6.58471 17.1782 6.43169 17.2454 6.10305C17.276 5.95449 17.2559 5.77047 17.1299 5.66566Z" fill="#34495E"/>
<path d="M10.0967 5.77849C10.0795 5.77245 10.06 5.76575 10.0338 5.75669C9.92887 5.72096 9.80737 5.72661 9.70321 5.76181C9.57501 5.80503 9.43538 5.82617 9.29852 5.84732C9.3173 5.79005 9.33227 5.73173 9.35198 5.67486C9.37286 5.61509 9.39493 5.55599 9.42317 5.49951C9.43473 5.47665 9.53416 5.36159 9.4543 5.44329C9.92821 4.95847 9.10478 4.29765 8.71217 4.87073C8.51659 5.15616 8.45328 5.58383 8.38064 5.91339C8.37775 5.92626 8.37526 5.93953 8.3725 5.9524C8.34767 5.95792 8.31983 5.96068 8.29645 5.96764C8.24929 5.95476 8.19583 5.95595 8.14158 5.97893C7.94101 6.06405 7.90555 6.2591 8.01234 6.40766C8.05857 6.51248 8.14566 6.57894 8.25218 6.62268C8.22762 6.8176 8.21383 7.01345 8.22473 7.20693C8.25166 7.692 8.91852 7.67729 8.96699 7.20693C8.98498 7.03157 9.02084 6.85583 9.06248 6.68126C9.12106 6.67745 9.17597 6.67351 9.22286 6.67181C9.56963 6.65762 10.1514 6.72763 10.3364 6.3542C10.4397 6.14549 10.3426 5.82131 10.0967 5.77849Z" fill="#34495E"/>
<path d="M24.1291 5.9421C24.516 4.53823 23.5802 3.03532 22.7094 2.02117C21.8305 0.997685 20.4808 -0.0255326 19.0661 0.000343331C17.4692 0.0295031 16.7548 1.61477 16.7119 3.01627C15.7581 2.55629 14.7125 2.26127 13.6475 2.14569C13.5355 2.03154 13.3784 1.95891 13.1805 1.99581C13.0281 2.02432 12.8749 2.05492 12.7214 2.08737C12.6863 2.08684 12.6515 2.08369 12.6167 2.08369C12.5177 2.08356 12.4441 2.11705 12.383 2.16237C11.7447 2.30843 11.1021 2.49061 10.4754 2.7097C9.99784 1.26406 8.35163 0.00966919 6.83507 0.116588C5.39586 0.217859 4.24366 1.32422 3.488 2.46605C2.76847 3.5535 2.25607 5.0191 2.61308 6.3196C2.91702 7.42714 3.99909 7.87675 5.03281 7.72176C4.8434 8.71516 4.94415 9.85174 5.43803 11.1491C5.75011 11.9687 6.22468 12.6656 6.81458 13.2471C6.75494 13.2121 6.68073 13.1939 6.59286 13.2092C5.47467 13.4036 4.7026 14.0128 4.07107 14.9578C3.75898 15.4249 3.57102 16.0236 3.65955 16.5674C3.21663 16.5455 2.77832 16.5949 2.3576 16.7355C2.17529 16.7967 2.084 16.9223 2.05392 17.0585C0.42308 17.4 0.59922 19.4534 1.25768 20.8791C2.19066 22.8986 4.27597 25.331 6.77031 24.9628C8.00789 24.7799 8.83408 24.1672 9.24403 23.3528C9.26215 23.3712 9.27542 23.3914 9.29893 23.4076C10.9667 24.551 13.4326 24.4862 15.2193 23.5506C15.3693 23.7554 15.5463 23.9544 15.7681 24.1428C18.5234 26.4818 25.3209 21.1281 23.8651 18.5169C24.0247 18.4612 24.1504 18.2516 24.0615 18.0701C23.4587 16.8382 22.3891 16.3565 21.1841 16.3784C21.1112 16.104 20.9134 15.8401 20.7654 15.6195C20.5041 15.2289 20.199 14.8591 19.8659 14.5278C19.6254 14.2886 19.2898 13.9615 18.9427 13.8668C20.5919 12.4232 21.2193 10.1531 20.7248 7.91064C21.4641 7.95964 22.3562 7.68814 22.9386 7.39864C23.5253 7.10704 23.9562 6.56982 24.1291 5.9421ZM5.17979 7.14684C4.37107 7.03638 3.63525 6.84644 3.44584 5.891C3.24855 4.89576 3.79063 3.75512 4.30789 2.94521C4.86087 2.07935 5.76706 1.19103 6.8352 1.06559C8.25246 0.899435 8.87309 2.11048 9.65266 3.02376C9.50738 3.08431 9.36776 3.15262 9.22577 3.2179C8.83461 2.40931 7.81087 1.91569 6.94803 1.97729C6.04591 2.04179 5.23588 2.60699 4.6737 3.28607C4.16603 3.89934 3.77159 4.72816 3.94234 5.53885C4.0934 6.25576 4.7445 6.55879 5.40243 6.60423C5.3206 6.78116 5.24034 6.95888 5.17979 7.14684ZM6.27801 3.97657C6.04552 3.85626 5.82406 3.71493 5.60996 3.56348C5.82157 3.35844 6.06759 3.18112 6.33265 3.05069C6.53191 3.22801 6.73485 3.40087 6.93187 3.58095C7.12522 3.75775 7.34497 3.97684 7.581 4.15981C7.45162 4.25136 7.32001 4.3412 7.1972 4.43827C7.19221 4.43249 7.19313 4.42553 7.18735 4.42001C6.95302 4.20013 6.56343 4.12421 6.27801 3.97657ZM6.78804 4.78149C6.62057 4.93425 6.46124 5.09292 6.31242 5.25855C6.30888 5.25304 6.30546 5.24424 6.30205 5.24043C6.25318 5.18894 6.19592 5.14651 6.13352 5.11328C5.99587 5.03985 5.85848 4.96643 5.72122 4.89209C5.45773 4.74957 5.19148 4.61218 4.92432 4.47689C5.04306 4.23652 5.20173 4.01532 5.36578 3.82066C5.55348 3.98616 5.74801 4.14378 5.95252 4.29011C6.17346 4.44838 6.48673 4.69519 6.78804 4.78149ZM7.22583 3.20016C7.08634 3.0985 6.94987 2.99263 6.813 2.88742C6.85831 2.87862 6.90192 2.86181 6.9479 2.85668C7.66178 2.77512 7.99988 3.20555 8.44082 3.61326C8.33771 3.67014 8.24209 3.7341 8.14239 3.79426C7.85566 3.57596 7.5018 3.40139 7.22583 3.20016ZM5.70729 6.04731C5.2146 5.97441 4.72677 5.7875 4.72716 5.22007C4.72729 5.13075 4.74909 5.04314 4.76617 4.95513C4.82961 4.99375 4.89227 5.03368 4.95479 5.07335C5.1945 5.22545 5.43461 5.37703 5.67577 5.52703C5.77166 5.58653 5.87161 5.65181 5.97617 5.68531C5.88619 5.80589 5.78663 5.92029 5.70729 6.04731ZM6.76335 24.0239C3.868 24.7152 0.260731 18.5546 2.1837 17.482C2.28155 17.5776 2.42039 17.6374 2.59758 17.6069C3.26865 17.4913 3.92474 17.5653 4.54931 17.7615C4.37948 17.7532 4.21043 17.8891 4.1705 18.0513C4.09931 18.341 4.34848 18.8274 4.4793 19.0775C4.65689 19.4172 5.10295 19.1629 5.05238 18.836C5.04831 18.8093 5.04056 18.7833 5.03544 18.7566C5.0554 18.7265 5.07786 18.6974 5.08338 18.6615C5.12436 18.3982 5.02966 18.0174 4.79073 17.8485C5.79727 18.2218 6.71317 18.9053 7.45189 19.6624C8.93115 21.1783 9.25361 23.4295 6.76335 24.0239ZM14.8081 22.7494C13.2071 23.5412 11.2476 23.6645 9.6411 22.8224C9.57634 22.7884 9.51579 22.7809 9.458 22.7833C9.64688 22.022 9.52932 21.1496 9.09442 20.3021C9.87319 19.1333 11.3016 18.6515 12.6603 18.5637C13.3223 18.521 14.0021 18.6278 14.5927 18.9335C15.0661 19.1786 15.1523 19.5829 15.3152 19.992C14.7733 20.8964 14.5334 21.86 14.8081 22.7494ZM22.9964 17.8624C22.8021 17.9373 22.6758 18.1975 22.7849 18.4076C24.1692 21.0721 19.0649 24.2612 16.7825 23.6376C16.3082 23.5079 16.0105 23.2848 15.8404 23.0055C15.8566 22.8595 15.7987 22.7116 15.6946 22.6112C15.4541 21.4077 16.7734 19.6118 17.4848 18.9954C18.9043 17.7656 21.3615 16.709 22.9964 17.8624ZM19.5168 15.2393C19.7401 15.5272 19.9445 15.8254 20.1285 16.14C20.1927 16.2499 20.2428 16.3662 20.2945 16.4802C19.2676 16.688 18.2022 17.1945 17.2791 17.8793C17.3324 17.639 17.1878 17.3877 17.0884 17.1473C16.9337 16.7739 16.7709 16.3345 16.4603 16.0604C16.1202 15.7605 15.5432 16.1476 15.8084 16.5633C16.0582 16.955 16.3146 17.3283 16.5341 17.7406C16.6126 17.8877 16.7528 18.1335 16.9495 18.1347C16.6038 18.4176 16.2895 18.7276 16.005 19.051C15.4916 18.2006 14.0533 17.7418 13.1928 17.6919C11.587 17.5989 9.59289 18.2907 8.75803 19.7482C7.83976 18.4057 6.12827 17.0474 4.38473 16.6691C4.30329 15.4105 5.65423 14.1772 6.75363 13.7916C6.99045 13.7084 7.01357 13.4682 6.90113 13.3219C9.47244 15.7659 14.1204 16.1057 17.1939 14.9205C17.7115 14.7208 18.174 14.4612 18.5854 14.1571C18.587 14.165 18.5912 14.1825 18.613 14.234C18.6486 14.3176 18.7715 14.3953 18.8359 14.4557C19.0865 14.6921 19.3061 14.9676 19.5168 15.2393ZM9.74184 10.1009C8.74437 11.0525 9.15589 12.7739 10.5854 12.9632C11.1862 13.0428 11.7573 12.7208 12.0891 12.2336C12.1425 12.1552 12.1861 12.0718 12.227 11.9874C12.4565 12.4112 12.7991 12.7692 13.2406 12.9714C13.7432 13.2017 14.3064 13.1775 14.7756 12.8811C15.287 12.5577 15.7767 11.7361 15.5814 11.1333C15.5038 10.8939 15.1746 10.7671 14.9881 10.9766C14.5204 11.5019 14.5356 12.5587 13.5544 12.2273C12.9657 12.0285 12.7031 11.5014 12.5829 10.9362C12.6787 10.9046 12.7693 10.8534 12.835 10.7581C13.1543 10.2946 13.5455 9.68282 13.667 9.10987C13.6865 9.06166 13.699 9.01333 13.7026 8.96525C13.7036 8.95711 13.7078 8.94844 13.7086 8.9403C13.7064 8.94568 13.7042 8.95094 13.702 8.95619C13.7039 8.9181 13.7043 8.88014 13.6959 8.84402C15.5786 9.31464 17.3573 11.2388 17.4558 12.9755C17.4684 13.1972 17.6335 13.3404 17.8145 13.3673C17.7376 13.4233 17.6633 13.4813 17.5823 13.5337C14.6225 15.45 10.193 14.6129 7.64234 12.3919C7.79103 10.8346 9.43934 9.75401 10.9906 9.17042C11.0042 9.20851 11.0224 9.24516 11.0427 9.2822C11.1374 9.45453 11.2463 9.61806 11.3561 9.78107C11.5025 9.99845 11.6602 10.2101 11.8143 10.4234C11.7713 10.8558 11.6751 11.2804 11.4318 11.6456C11.2177 11.9669 10.9735 12.05 10.6719 12.0218C10.5105 12.0065 10.2412 11.815 10.1714 11.6373C10.0387 11.2995 10.1761 10.8631 10.3391 10.4486C10.4775 10.097 9.98129 9.87249 9.74184 10.1009ZM18.3426 12.9343C19.495 10.383 14.4271 7.67382 12.4595 7.78494C10.5194 7.89449 7.29926 9.60966 7.01672 11.7658C5.25768 9.62279 6.05261 6.30016 8.17865 4.71108C9.64149 3.61786 11.7149 3.35384 13.4514 2.97858H13.4516C15.9074 3.31654 18.0266 4.55215 19.2505 6.81571C20.3812 8.9068 19.9833 11.3721 18.3426 12.9343ZM19.7975 5.64722C19.7887 5.65523 19.7851 5.66403 19.7782 5.67217C19.6455 5.47016 19.5119 5.2688 19.3602 5.08359C19.7663 4.63122 20.2626 4.25845 20.6398 3.78769C20.6495 3.77522 20.6528 3.76261 20.6606 3.75013C20.7344 3.8271 20.8017 3.91024 20.858 4.00179C20.9628 4.17176 21.0173 4.37417 21.0364 4.58065C20.6226 4.93464 20.2013 5.28522 19.7975 5.64722ZM19.5679 4.11239C19.3924 4.32597 19.2294 4.5486 19.0779 4.77912C18.9383 4.62781 18.8036 4.4715 18.6518 4.33227C18.7854 4.14878 18.9714 3.97434 19.0988 3.8405C19.2454 3.68655 19.4057 3.54259 19.5763 3.41597C19.6535 3.35857 19.7255 3.30249 19.7762 3.23366C19.9238 3.277 20.0641 3.34005 20.1993 3.4119C19.9636 3.61116 19.7618 3.87622 19.5679 4.11239ZM18.6926 3.52709C18.5674 3.69168 18.444 3.88148 18.3602 4.08323C18.255 3.99615 18.1523 3.90591 18.0425 3.82447C18.1907 3.43226 18.4907 3.20581 18.9731 3.15564C18.8586 3.29395 18.7607 3.43725 18.6926 3.52709ZM20.4211 6.88992C20.3896 6.80862 20.3506 6.73256 20.3162 6.65297C20.8212 6.75095 21.3386 6.3967 21.6362 5.94538C22.102 5.23885 22.0229 4.26174 21.6334 3.54837C20.7718 1.97151 17.9734 1.86249 17.4797 3.44303C17.3997 3.39364 17.3219 3.34097 17.2402 3.29408C17.245 3.28213 17.2527 3.27372 17.2559 3.26032C17.5123 2.23816 17.8455 0.877106 19.1491 0.950399C20.2342 1.01148 21.2352 1.88653 21.9276 2.64718C22.5793 3.36291 23.3366 4.48792 23.1918 5.51508C22.996 6.90595 21.4383 6.65362 20.4211 6.88992Z" fill="#34495E"/>
<path d="M18.8804 19.7444C18.4166 19.568 18.1209 19.8207 17.9327 20.1926C17.9165 20.2102 17.8971 20.2228 17.8841 20.2446C17.8175 20.2361 17.7459 20.2526 17.6818 20.3134C17.3397 20.6389 16.9947 21.098 17.1066 21.6025C17.2417 22.2109 17.8993 22.4178 18.4448 22.4794C19.2166 22.5666 19.8101 22.0764 19.7984 21.2895C19.7896 20.7008 19.4614 19.9655 18.8804 19.7444Z" fill="#34495E"/>
<path d="M20.6563 18.2971C20.5131 18.009 20.1504 18.0327 19.9366 18.2043C19.8123 18.304 19.7748 18.4959 19.7543 18.6751C19.7246 18.772 19.6904 18.8678 19.6533 18.9621C19.4218 19.5521 20.4546 19.8594 20.6137 19.2269C20.6873 18.9341 20.7988 18.5841 20.6563 18.2971Z" fill="#34495E"/>
<path d="M21.4695 19.397C21.4049 19.3177 21.3394 19.2558 21.2539 19.1972C21.0945 19.0879 20.8258 19.1229 20.6992 19.2688C20.4895 19.511 20.5542 19.7272 20.6989 19.9742C20.7366 20.0384 20.7914 20.0808 20.8521 20.1092C21.2692 20.4121 21.8637 19.8808 21.4695 19.397Z" fill="#34495E"/>
<path d="M21.3331 20.3811C21.1408 20.3591 20.9443 20.3737 20.7509 20.3764C20.4475 20.3724 20.2984 20.6074 20.3011 20.8425C20.2996 20.9559 20.3353 21.0676 20.4051 21.1542C20.3761 21.3431 20.6042 21.5287 20.7858 21.411C20.8305 21.3818 20.8773 21.3468 20.9252 21.3127C21.0616 21.3164 21.1983 21.3193 21.333 21.3039C21.9268 21.2363 21.9268 20.4487 21.3331 20.3811Z" fill="#34495E"/>
<path d="M6.71385 19.9489C6.28157 19.6355 5.68682 19.5193 5.14933 19.6244C3.95339 19.5713 2.95749 20.615 3.65746 21.793C3.75269 21.9533 3.87484 22.1066 4.00737 22.2549C4.04599 22.3304 4.08461 22.4061 4.1336 22.4748C4.32721 22.7458 4.5907 22.8993 4.87507 22.9671C5.44421 23.3048 6.09781 23.493 6.70255 23.3952C7.29441 23.2994 7.62949 22.7439 7.6794 22.1885C7.75861 21.3062 7.43456 20.4712 6.71385 19.9489ZM6.83653 22.218C6.83245 22.1703 6.81945 22.1219 6.78477 22.0733C6.76376 22.0437 6.73342 22.0233 6.70728 21.9984C6.91678 21.3993 6.50263 20.8627 5.94335 20.5242C6.10359 20.5777 6.24979 20.6542 6.35973 20.7436C6.72317 21.0381 6.96236 21.7198 6.83653 22.218Z" fill="#34495E"/>
<path d="M2.84463 19.1883C2.64196 19.1589 2.42537 19.1388 2.26656 19.2976C2.10645 19.4577 2.0983 19.749 2.27011 19.906C2.33342 19.9636 2.39476 20.0066 2.47974 20.0263C2.54752 20.0445 2.61517 20.0445 2.68294 20.0263C2.70698 20.0159 2.72419 20.0084 2.73877 20.0021H2.73903C2.73955 20.002 2.73982 20.0016 2.74021 20.0015C2.78251 19.9835 2.78132 19.9845 2.74231 20.0024C3.17721 20.0038 3.32222 19.2574 2.84463 19.1883Z" fill="#34495E"/>
<path d="M2.71539 20.0146C2.72774 20.009 2.73352 20.0063 2.74206 20.0024C2.74101 20.0024 2.73996 20.0021 2.73877 20.0021C2.73037 20.0054 2.72459 20.0118 2.71539 20.0146Z" fill="#34495E"/>
<path d="M3.90163 18.4907C3.73837 18.3985 3.45938 18.3574 3.34563 18.1942C3.05548 17.7782 2.37128 18.1656 2.65854 18.5959C2.71423 18.7069 2.79619 18.8032 2.88696 18.893C3.01345 19.0458 3.14782 19.1916 3.29664 19.3241C3.44099 19.4527 3.60597 19.4288 3.71774 19.3387C4.09932 19.3217 4.28544 18.7073 3.90163 18.4907Z" fill="#34495E"/>
<path d="M8.61988 15.6174C8.18629 15.6803 7.99636 16.3289 7.88208 16.6783C7.69491 17.2497 7.66483 17.8862 7.80052 18.4699C7.87236 18.7791 8.36532 18.7124 8.35284 18.3953C8.33393 17.913 8.40683 17.4652 8.56221 17.0089C8.67951 16.6644 8.98319 16.4126 9.0821 16.0797C9.17181 15.7774 8.88757 15.5786 8.61988 15.6174Z" fill="#34495E"/>
</g>
<defs>
<clipPath id="clip0_4_99">
<rect width="25" height="25" fill="white"/>
</clipPath>
</defs>
</svg>
