<svg width="25" height="25" viewBox="0 0 25 25" fill="none" xmlns="http://www.w3.org/2000/svg">
<path d="M24.1667 11.3267V6.66666C24.1667 6.43666 23.98 6.24999 23.75 6.24999H22.0833V5.83332C22.0833 5.60332 21.8967 5.41666 21.6667 5.41666V3.33332C21.6667 3.10332 21.48 2.91666 21.25 2.91666H19.5833C19.3533 2.91666 19.1667 3.10332 19.1667 3.33332V5.41666C18.9367 5.41666 18.75 5.60332 18.75 5.83332V7.49999V12.9167V14.5833V20V21.6667C18.75 21.6725 18.7533 21.6775 18.7533 21.6837C18.7554 21.7312 18.7462 21.7787 18.765 21.8237C18.7658 21.8258 18.75 21.8279 18.75 21.83C18.75 21.8304 18.75 21.8304 18.75 21.8308L20.0171 24.7475C20.0825 24.9008 20.2417 25 20.4083 25C20.575 25 20.7467 24.9008 20.8125 24.7475L22.0837 21.8308C22.0837 21.8304 22.0837 21.8304 22.0837 21.83C22.0837 21.8279 22.0679 21.8258 22.0687 21.8237C22.0871 21.7783 22.0867 21.7312 22.0888 21.6837C22.0883 21.6775 22.0833 21.6725 22.0833 21.6667V20V14.5833V12.9167V7.49999V7.08332H23.3333V11.3267C22.8496 11.4992 22.5 11.9575 22.5 12.5C22.5 13.1892 23.0608 13.75 23.75 13.75C24.4392 13.75 25 13.1892 25 12.5C25 11.9575 24.6504 11.4992 24.1667 11.3267ZM20 3.74999H20.8333V5.41666H20V3.74999ZM20.4167 23.5254L19.7987 22.0833H21.035L20.4167 23.5254ZM21.25 21.25H19.5833V20.4167H21.25V21.25ZM21.25 19.5833H19.5833V15H21.25V19.5833ZM21.25 14.1667H19.5833V13.3333H21.25V14.1667ZM21.25 12.5H19.5833V11.25H20C20.23 11.25 20.4167 11.0633 20.4167 10.8333C20.4167 10.6033 20.23 10.4167 20 10.4167H19.5833V9.58332H20C20.23 9.58332 20.4167 9.39666 20.4167 9.16666C20.4167 8.93666 20.23 8.74999 20 8.74999H19.5833V7.91666H21.25V12.5ZM21.25 7.08332H19.5833V6.24999H21.25V7.08332ZM23.75 12.9167C23.5204 12.9167 23.3333 12.7296 23.3333 12.5C23.3333 12.2704 23.5204 12.0833 23.75 12.0833C23.9796 12.0833 24.1667 12.2704 24.1667 12.5C24.1667 12.7296 23.9796 12.9167 23.75 12.9167Z" fill="#34495E"/>
<path d="M15 2.91667H13.3333H12.8142L12.2392 0.90875C12.0896 0.37375 11.5954 0 11.0375 0H6.04583C5.48792 0 4.99417 0.37375 4.84542 0.90625L4.26917 2.91667H3.75H2.08333C0.934583 2.91667 0 3.85125 0 5V22.9167C0 24.0654 0.934583 25 2.08333 25H15C16.1488 25 17.0833 24.0654 17.0833 22.9167V5.83333V5C17.0833 3.85125 16.1488 2.91667 15 2.91667ZM3.33333 4.16667C3.33333 3.93708 3.52042 3.75 3.75 3.75H4.58333C4.76917 3.75 4.9325 3.62708 4.98375 3.44792L5.64708 1.13292C5.69625 0.956667 5.86 0.833333 6.04583 0.833333H11.0375C11.2229 0.833333 11.3867 0.956667 11.4367 1.13583L12.0992 3.44833C12.1021 3.45792 12.1083 3.46542 12.1117 3.47458C12.1183 3.4925 12.1267 3.50792 12.1354 3.52458C12.1504 3.55333 12.1675 3.57917 12.1883 3.60333C12.2004 3.61708 12.2117 3.63 12.2254 3.64208C12.2504 3.66458 12.2783 3.68208 12.3083 3.69792C12.3225 3.70542 12.3354 3.71458 12.3508 3.72042C12.3979 3.73792 12.4475 3.75 12.5 3.75H13.3333C13.5629 3.75 13.75 3.93708 13.75 4.16667V5H3.33333V4.16667ZM14.1667 5.83333H14.5833V22.0833H2.5V5.83333H2.91667H14.1667ZM16.25 5.83333V22.9167C16.25 23.6058 15.6892 24.1667 15 24.1667H2.08333C1.39417 24.1667 0.833333 23.6058 0.833333 22.9167V5C0.833333 4.31083 1.39417 3.75 2.08333 3.75H2.57667C2.53 3.88083 2.5 4.02 2.5 4.16667V5H2.08333C1.85333 5 1.66667 5.18667 1.66667 5.41667V22.5C1.66667 22.73 1.85333 22.9167 2.08333 22.9167H15C15.23 22.9167 15.4167 22.73 15.4167 22.5V5.41667C15.4167 5.18667 15.23 5 15 5H14.5833V4.16667C14.5833 4.02 14.5533 3.88083 14.5067 3.75H15C15.6892 3.75 16.25 4.31083 16.25 5V5.83333Z" fill="#34495E"/>
<path d="M8.59586 1.4375C7.89253 1.4375 7.32086 2.01125 7.32086 2.71667C7.32086 3.42 7.89294 3.99167 8.59586 3.99167C9.30128 3.99167 9.87503 3.41958 9.87503 2.71667C9.87503 2.01125 9.30128 1.4375 8.59586 1.4375ZM8.59586 3.15833C8.35253 3.15833 8.1542 2.96 8.1542 2.71667C8.1542 2.46667 8.34836 2.27083 8.59586 2.27083C8.84586 2.27083 9.0417 2.46667 9.0417 2.71667C9.0417 2.96417 8.84586 3.15833 8.59586 3.15833Z" fill="#34495E"/>
<path d="M7.49998 8.33333H10.8333C11.0633 8.33333 11.25 8.14667 11.25 7.91667C11.25 7.68667 11.0633 7.5 10.8333 7.5H7.49998C7.26998 7.5 7.08331 7.68667 7.08331 7.91667C7.08331 8.14667 7.26998 8.33333 7.49998 8.33333Z" fill="#34495E"/>
<path d="M12.5 8.33333H13.3333C13.5633 8.33333 13.75 8.14667 13.75 7.91667C13.75 7.68667 13.5633 7.5 13.3333 7.5H12.5C12.27 7.5 12.0833 7.68667 12.0833 7.91667C12.0833 8.14667 12.27 8.33333 12.5 8.33333Z" fill="#34495E"/>
<path d="M13.3333 9.58334H9.99998C9.76998 9.58334 9.58331 9.77001 9.58331 10C9.58331 10.23 9.76998 10.4167 9.99998 10.4167H13.3333C13.5633 10.4167 13.75 10.23 13.75 10C13.75 9.77001 13.5633 9.58334 13.3333 9.58334Z" fill="#34495E"/>
<path d="M7.49998 10.4167H8.33331C8.56331 10.4167 8.74998 10.23 8.74998 10C8.74998 9.77001 8.56331 9.58334 8.33331 9.58334H7.49998C7.26998 9.58334 7.08331 9.77001 7.08331 10C7.08331 10.23 7.26998 10.4167 7.49998 10.4167Z" fill="#34495E"/>
<path d="M4.28877 10.2946C4.36711 10.3733 4.47336 10.4167 4.58336 10.4167C4.60044 10.4167 4.61752 10.4158 4.63419 10.4137C4.76169 10.3979 4.87461 10.3246 4.94044 10.2146L6.19044 8.13124C6.30877 7.93374 6.24502 7.67791 6.04752 7.55958C5.85002 7.44083 5.59419 7.50499 5.47586 7.70249L4.50044 9.32832L4.04461 8.87249C3.88169 8.70957 3.61836 8.70957 3.45544 8.87249C3.29252 9.03541 3.29252 9.29874 3.45544 9.46165L4.28877 10.2946Z" fill="#34495E"/>
<path d="M7.49998 13.75H10.8333C11.0633 13.75 11.25 13.5633 11.25 13.3333C11.25 13.1033 11.0633 12.9167 10.8333 12.9167H7.49998C7.26998 12.9167 7.08331 13.1033 7.08331 13.3333C7.08331 13.5633 7.26998 13.75 7.49998 13.75Z" fill="#34495E"/>
<path d="M13.3333 12.9167H12.5C12.27 12.9167 12.0833 13.1033 12.0833 13.3333C12.0833 13.5633 12.27 13.75 12.5 13.75H13.3333C13.5633 13.75 13.75 13.5633 13.75 13.3333C13.75 13.1033 13.5633 12.9167 13.3333 12.9167Z" fill="#34495E"/>
<path d="M13.3333 15H9.99998C9.76998 15 9.58331 15.1867 9.58331 15.4167C9.58331 15.6467 9.76998 15.8333 9.99998 15.8333H13.3333C13.5633 15.8333 13.75 15.6467 13.75 15.4167C13.75 15.1867 13.5633 15 13.3333 15Z" fill="#34495E"/>
<path d="M7.49998 15.8333H8.33331C8.56331 15.8333 8.74998 15.6467 8.74998 15.4167C8.74998 15.1867 8.56331 15 8.33331 15H7.49998C7.26998 15 7.08331 15.1867 7.08331 15.4167C7.08331 15.6467 7.26998 15.8333 7.49998 15.8333Z" fill="#34495E"/>
<path d="M4.28877 15.7112C4.36711 15.79 4.47336 15.8333 4.58336 15.8333C4.60044 15.8333 4.61752 15.8325 4.63419 15.8304C4.76169 15.8146 4.87461 15.7412 4.94044 15.6312L6.19044 13.5479C6.30877 13.3504 6.24502 13.0946 6.04752 12.9762C5.85002 12.8571 5.59419 12.9217 5.47586 13.1192L4.50044 14.745L4.04461 14.2892C3.88169 14.1262 3.61836 14.1262 3.45544 14.2892C3.29252 14.4521 3.29252 14.7154 3.45544 14.8783L4.28877 15.7112Z" fill="#34495E"/>
<path d="M7.49998 18.75H10.8333C11.0633 18.75 11.25 18.5633 11.25 18.3333C11.25 18.1033 11.0633 17.9167 10.8333 17.9167H7.49998C7.26998 17.9167 7.08331 18.1033 7.08331 18.3333C7.08331 18.5633 7.26998 18.75 7.49998 18.75Z" fill="#34495E"/>
<path d="M13.3333 17.9167H12.5C12.27 17.9167 12.0833 18.1033 12.0833 18.3333C12.0833 18.5633 12.27 18.75 12.5 18.75H13.3333C13.5633 18.75 13.75 18.5633 13.75 18.3333C13.75 18.1033 13.5633 17.9167 13.3333 17.9167Z" fill="#34495E"/>
<path d="M13.3333 20H9.99998C9.76998 20 9.58331 20.1867 9.58331 20.4167C9.58331 20.6467 9.76998 20.8333 9.99998 20.8333H13.3333C13.5633 20.8333 13.75 20.6467 13.75 20.4167C13.75 20.1867 13.5633 20 13.3333 20Z" fill="#34495E"/>
<path d="M7.49998 20.8333H8.33331C8.56331 20.8333 8.74998 20.6467 8.74998 20.4167C8.74998 20.1867 8.56331 20 8.33331 20H7.49998C7.26998 20 7.08331 20.1867 7.08331 20.4167C7.08331 20.6467 7.26998 20.8333 7.49998 20.8333Z" fill="#34495E"/>
<path d="M4.28877 20.7112C4.36711 20.79 4.47336 20.8333 4.58336 20.8333C4.60044 20.8333 4.61752 20.8325 4.63419 20.8304C4.76169 20.8146 4.87461 20.7412 4.94044 20.6312L6.19044 18.5479C6.30877 18.3504 6.24502 18.0946 6.04752 17.9763C5.85002 17.8575 5.59419 17.9217 5.47586 18.1192L4.50044 19.745L4.04461 19.2892C3.88169 19.1263 3.61836 19.1263 3.45544 19.2892C3.29252 19.4521 3.29252 19.7154 3.45544 19.8783L4.28877 20.7112Z" fill="#34495E"/>
</svg>
