<svg width="25" height="25" viewBox="0 0 25 25" fill="none" xmlns="http://www.w3.org/2000/svg">
<g clip-path="url(#clip0_3_21)">
<path d="M24.7342 10.1595C25.0239 10.3712 25.0862 10.7779 24.8745 11.0669C24.7472 11.241 24.5497 11.3332 24.3503 11.3332C24.2171 11.3332 24.0827 11.2923 23.967 11.2072L22.2437 9.94575V22.9932C22.2437 23.3517 21.9527 23.6427 21.5941 23.6427H15.0983C14.7566 23.6427 14.4773 23.3784 14.4513 23.0432C14.45 23.0282 14.4487 23.012 14.4487 22.9932V16.6995C14.4487 15.625 13.5744 14.7507 12.5 14.7507C11.4256 14.7507 10.5513 15.625 10.5513 16.6995V22.9932C10.5513 23.0121 10.55 23.0283 10.5487 23.0439C10.5227 23.3791 10.2434 23.6428 9.90171 23.6428H3.40591C3.04736 23.6428 2.75635 23.3518 2.75635 22.9933V9.94575L1.033 11.2072C0.743942 11.4196 0.337301 11.3566 0.125534 11.0669C-0.086234 10.7778 -0.0238805 10.3712 0.265866 10.1594L12.1161 1.48242C12.3448 1.31547 12.6553 1.31547 12.8839 1.48242L24.7342 10.1595ZM20.9445 22.3437L20.9504 8.99873L12.5 2.8121L4.04961 8.99868L4.05547 22.3436H9.2521V16.6995C9.2521 14.9086 10.7091 13.4516 12.5 13.4516C14.2909 13.4516 15.7479 14.9085 15.7479 16.6995V22.3437H20.9445Z" fill="#1E0478"/>
<path d="M20.9503 8.99867L20.9445 22.3436H15.7479V16.6994C15.7479 14.9086 14.2909 13.4516 12.5 13.4516C10.7091 13.4516 9.25211 14.9085 9.25211 16.6994V22.3436H4.05548L4.04962 8.99872L12.5 2.8121L20.9503 8.99867Z" fill="#7D3C98"/>
</g>
<defs>
<clipPath id="clip0_3_21">
<rect width="25" height="25" fill="white"/>
</clipPath>
</defs>
</svg>
