<svg width="25" height="25" viewBox="0 0 25 25" fill="none" xmlns="http://www.w3.org/2000/svg">
<g clip-path="url(#clip0_3_76)">
<path d="M16.1484 12.3483L14.6028 12.0847C14.4529 11.4903 14.2203 10.9268 13.9153 10.4099L14.8302 9.13314C15.0008 8.89536 14.975 8.57487 14.7682 8.36811L14.2255 7.82018L13.6827 7.27225C13.569 7.15853 13.4139 7.0965 13.264 7.0965C13.1451 7.0965 13.0262 7.13269 12.9228 7.20505L11.6357 8.10448C11.1136 7.78917 10.5399 7.54622 9.92474 7.39631L9.67145 5.86108C9.62493 5.57161 9.37681 5.36484 9.08734 5.35967L8.31197 5.3545L7.5366 5.34933C7.2523 5.34933 6.99901 5.5561 6.94732 5.84557L6.67335 7.40665C6.0789 7.55655 5.51547 7.7995 5.00372 8.09931L3.74762 7.17921C3.64424 7.10684 3.52018 7.06549 3.40129 7.06549C3.25139 7.06549 3.09631 7.12235 2.98259 7.23607L2.43466 7.77883L1.88673 8.32159C1.68514 8.52318 1.65412 8.84367 1.81954 9.08662L2.73447 10.3789C2.42949 10.8958 2.19688 11.4541 2.04698 12.0485L0.511744 12.3018C0.222273 12.3483 0.0155074 12.5965 0.0103383 12.8859L0.00516913 13.6613L0 14.4367C0 14.7261 0.206765 14.9794 0.496237 15.026L2.05732 15.2999C2.20722 15.8944 2.45017 16.4578 2.74998 16.9695L1.84021 18.236C1.66963 18.4738 1.69548 18.7943 1.90224 19.001L2.445 19.5489L2.98776 20.1124C3.10148 20.2261 3.25655 20.2881 3.40646 20.2881C3.52535 20.2881 3.64424 20.2519 3.74762 20.1796L5.03991 19.2646C5.54131 19.5593 6.09441 19.7919 6.66818 19.9418L6.92147 21.4925C6.96799 21.782 7.21611 21.9888 7.50558 21.9939L8.28095 21.9991L9.05632 22.0043C9.34062 22.0043 9.59391 21.7975 9.6456 21.508L9.90923 19.9625C10.5037 19.8126 11.0671 19.58 11.584 19.275L12.8608 20.1899C12.9642 20.2623 13.0882 20.3036 13.2071 20.3036C13.357 20.3036 13.5121 20.2468 13.6258 20.1331L14.1738 19.5903L14.7217 19.0475C14.9233 18.8459 14.9543 18.5255 14.7889 18.2825L13.8843 16.9954C14.1944 16.4785 14.4271 15.9202 14.5821 15.3258L16.1329 15.0725C16.4223 15.026 16.6291 14.7778 16.6343 14.4884L16.6394 13.713L16.6446 12.9376C16.6394 12.643 16.4327 12.4 16.1484 12.3483ZM9.44401 18.5668C9.06666 18.6547 8.68931 18.696 8.31714 18.696C6.03238 18.696 3.96473 17.1246 3.42714 14.7985C2.80684 12.0951 4.49198 9.40194 7.19543 8.78164C7.57278 8.69376 7.95013 8.65241 8.32231 8.65241C10.6071 8.65241 12.6747 10.2238 13.2123 12.5499C13.8326 15.2534 12.1423 17.9465 9.44401 18.5668Z" fill="#34495E"/>
<path d="M18.8156 11.8624L19.2292 11.9141C19.3791 11.9296 19.529 11.8366 19.5703 11.6867L19.8081 10.8855C20.1338 10.8441 20.4439 10.7562 20.7386 10.627L21.3589 11.1905C21.4106 11.237 21.4726 11.2628 21.5346 11.2732C21.6173 11.2835 21.7 11.2628 21.7672 11.2111L22.0929 10.9578L22.4185 10.7046C22.5374 10.6115 22.5736 10.4409 22.5012 10.3065L22.1032 9.56734C22.2996 9.31406 22.4599 9.02975 22.5788 8.72477L23.4162 8.68859C23.5713 8.68342 23.7005 8.56453 23.716 8.40946L23.7677 7.99593L23.8194 7.5824C23.8297 7.43249 23.7367 7.28776 23.5919 7.2464L22.7907 7.00862C22.7494 6.68297 22.6615 6.37282 22.5323 6.07818L23.0957 5.45788C23.1991 5.34416 23.2042 5.16841 23.1112 5.04952L22.8579 4.72387L22.6046 4.39821C22.5529 4.33101 22.4754 4.28966 22.3927 4.27932C22.3307 4.27415 22.2635 4.28449 22.2066 4.31551L21.4674 4.71353C21.209 4.51193 20.9195 4.35169 20.6042 4.2328L20.5628 3.40057C20.5576 3.2455 20.4388 3.11627 20.2837 3.10076L19.8702 3.04907L19.4566 2.99738C19.3067 2.98187 19.1568 3.07491 19.1155 3.22482L18.8725 4.03637C18.5469 4.07773 18.2367 4.17077 17.9421 4.3L17.3321 3.73139C17.2804 3.68487 17.2184 3.65903 17.1564 3.64869C17.0736 3.63835 16.9909 3.65903 16.9237 3.71072L16.5981 3.96401L16.2724 4.21729C16.1535 4.31034 16.1174 4.48092 16.1897 4.61532L16.5929 5.35967C16.4017 5.61296 16.2414 5.89726 16.1225 6.20224L15.2955 6.23842C15.1404 6.24359 15.0112 6.36248 14.9957 6.51756L14.944 6.93109L14.8923 7.34462C14.8716 7.49452 14.9698 7.64443 15.1197 7.69095L15.9313 7.9339C15.9726 8.25955 16.0657 8.5697 16.1949 8.86434L15.6366 9.47947C15.5332 9.59319 15.5281 9.76894 15.6211 9.88783L15.8744 10.2135L16.1277 10.5391C16.1794 10.6063 16.2569 10.6477 16.3396 10.658C16.4017 10.6632 16.4689 10.6529 16.5257 10.6218L17.2701 10.2187C17.5182 10.4047 17.7973 10.565 18.092 10.6787L18.1282 11.5161C18.1333 11.6712 18.2522 11.8004 18.4073 11.8159L18.8156 11.8624ZM17.544 7.38597C17.5802 6.38316 18.4228 5.60262 19.4256 5.6388C20.4284 5.67499 21.209 6.51756 21.1728 7.52037C21.1366 8.52318 20.294 9.30372 19.2912 9.26753C18.2884 9.23135 17.5079 8.38878 17.544 7.38597Z" fill="#34495E"/>
<path d="M24.9979 15.1655L24.9617 14.8554L24.9256 14.5452C24.9049 14.4367 24.8118 14.3488 24.6981 14.3384L24.0726 14.3074C23.9848 14.08 23.8659 13.8681 23.7211 13.6768L24.021 13.1289C24.0778 13.0255 24.052 12.9014 23.9589 12.8291L23.716 12.6378L23.473 12.4465C23.4213 12.4052 23.3593 12.3897 23.2973 12.3949C23.2508 12.4 23.2042 12.4207 23.168 12.4517L22.7028 12.8704C22.4806 12.767 22.2428 12.6998 21.9947 12.6688L21.8241 12.0744C21.7931 11.9606 21.6845 11.8934 21.5708 11.9038L21.2606 11.94L20.9505 11.9762C20.8368 11.9917 20.7489 12.0847 20.7437 12.1984L20.7075 12.8291C20.4801 12.9169 20.2682 13.041 20.0821 13.1806L19.5393 12.8756C19.4928 12.8497 19.4463 12.8446 19.3946 12.8497C19.3325 12.8549 19.2757 12.8859 19.2395 12.9376L19.0482 13.1806L18.857 13.4235C18.7846 13.5114 18.7898 13.6406 18.8673 13.7285L19.2912 14.1989C19.193 14.416 19.131 14.6486 19.0999 14.8915L18.5055 15.0621C18.3918 15.0931 18.3246 15.2017 18.3349 15.3154L18.3711 15.6256L18.4073 15.9357C18.4228 16.0494 18.5158 16.1373 18.6295 16.1476L19.2602 16.1838C19.3481 16.4113 19.4721 16.6232 19.6117 16.8093L19.3119 17.352C19.255 17.4554 19.2809 17.5795 19.3739 17.6519L19.6169 17.8431L19.8598 18.0344C19.9115 18.0757 19.9735 18.0912 20.0356 18.0861C20.0821 18.0809 20.1286 18.0602 20.1648 18.0292L20.6352 17.6053C20.8471 17.6984 21.0797 17.7656 21.3123 17.7966L21.4829 18.3962C21.5139 18.5099 21.6225 18.5771 21.7362 18.5668L22.0463 18.5306L22.3565 18.4944C22.4702 18.4789 22.5581 18.3859 22.5633 18.2722L22.5943 17.6467C22.8217 17.5588 23.0336 17.4399 23.2249 17.2952L23.7728 17.595C23.8194 17.6208 23.8659 17.626 23.9176 17.6208C23.9796 17.6157 24.0365 17.5847 24.0726 17.533L24.2639 17.29L24.4552 17.0471C24.5275 16.9592 24.5224 16.83 24.4448 16.7421L24.0261 16.2769C24.1243 16.0598 24.1915 15.8272 24.2225 15.5842L24.8222 15.4136C24.9411 15.3878 25.0134 15.2792 24.9979 15.1655ZM21.9378 16.5663C21.2038 16.7162 20.4904 16.2407 20.3405 15.5067C20.1906 14.7727 20.6662 14.0593 21.4002 13.9094C22.1342 13.7595 22.8476 14.2351 22.9975 14.9691C23.1474 15.7031 22.6718 16.4164 21.9378 16.5663Z" fill="#34495E"/>
<path d="M11.2015 15.2224C10.3073 14.9949 9.58358 14.4832 9.58358 14.4832L9.01498 16.2769L8.90642 16.6129V16.6077L8.81338 16.892L8.51357 16.0443C9.26826 14.9898 8.31197 15.0311 8.31197 15.0311C8.31197 15.0311 7.35568 14.9898 8.11038 16.0443L7.81057 16.8972L7.71752 16.6077L7.04554 14.478C7.04554 14.478 6.31669 14.9898 5.4276 15.2172C4.98305 15.3309 4.82281 15.7135 4.77112 16.065C5.57233 17.166 6.86462 17.8586 8.30681 17.8586C8.63763 17.8586 8.96845 17.8225 9.29411 17.7449C10.3383 17.5071 11.2429 16.9023 11.8632 16.0443C11.8011 15.7031 11.6357 15.3361 11.2015 15.2224Z" fill="#34495E"/>
<path d="M6.81295 13.2995C6.89049 13.8009 7.27301 14.4367 7.90881 14.6589C8.16727 14.752 8.45157 14.752 8.71519 14.6589C9.34066 14.4367 9.73868 13.8009 9.81622 13.3046C9.89892 13.2995 10.0126 13.1806 10.1315 12.7619C10.2918 12.1881 10.1212 12.1002 9.97646 12.1157C10.0023 12.0382 10.023 11.9555 10.0385 11.8779C10.2866 10.3892 9.55259 10.3375 9.55259 10.3375C9.55259 10.3375 9.4337 10.1049 9.11322 9.92918C8.90128 9.79996 8.60147 9.70174 8.20862 9.73793C8.07939 9.7431 7.9605 9.76894 7.84678 9.80513C7.70204 9.85165 7.56765 9.92402 7.44876 10.0067C7.30402 10.0998 7.16445 10.2135 7.04039 10.3427C6.84397 10.5391 6.67339 10.7976 6.60102 11.1181C6.53899 11.3559 6.5545 11.6091 6.60619 11.8728C6.62169 11.9503 6.64237 12.0278 6.66822 12.1106C6.52348 12.095 6.34773 12.1829 6.51314 12.7567C6.61653 13.1702 6.73025 13.2891 6.81295 13.2995Z" fill="#34495E"/>
</g>
<defs>
<clipPath id="clip0_3_76">
<rect width="25" height="25" fill="white"/>
</clipPath>
</defs>
</svg>
